<svg id="Layer_1" data-name="Layer 1" xmlns="http://www.w3.org/2000/svg" xmlns:xlink="http://www.w3.org/1999/xlink" viewBox="0 0 878.61 192.18"><defs><style>.cls-1{fill:url(#New_Gradient_Swatch_1);}</style><linearGradient id="New_Gradient_Swatch_1" x1="98.16" y1="420.96" x2="918.47" y2="584.4" gradientUnits="userSpaceOnUse"><stop offset="0" stop-color="#e10e68"/><stop offset="0.5" stop-color="#ff612e"/><stop offset="1" stop-color="#ffe041"/></linearGradient></defs><path class="cls-1" d="M116.93,548.69,72,593.62a6.53,6.53,0,0,1-9.57-8.9l.33-.32,44.94-44.93a6.53,6.53,0,1,1,9.71,8.73,4.53,4.53,0,0,1-.49.49Zm-17.68-26.9a6.54,6.54,0,0,0-9.23,0l-17,17A6.53,6.53,0,0,0,82.29,548l17-17a6.53,6.53,0,0,0,0-9.22Zm36.07,36.09a6.51,6.51,0,0,0-9.22,0l-17,17a6.53,6.53,0,0,0,9.23,9.23l16.95-17A6.51,6.51,0,0,0,135.32,557.88Zm34,34.61.29.17.26.16.3.14.28.13.29.11.31.11.29.07.34.08a1.81,1.81,0,0,0,.31,0l.32,0,.52,0h.24a4.43,4.43,0,0,0,.52,0,1.77,1.77,0,0,0,.32,0l.31,0,.36-.08.27-.07.33-.12.27-.1.3-.13.28-.14.28-.16.27-.17c.08-.06.2-.14.29-.22l.22-.16c.17-.14.33-.28.48-.43L215.3,554l.12-.13.12-.13.2-.23h0a42.54,42.54,0,0,0,10.41-28.23c0-8.14-.94-15.14-5-21.66a160.93,160.93,0,0,0,12.4-16.51c5.3-8.12,11-18,12.77-29.91V457l5.8-45.74a6.53,6.53,0,0,0-5.67-7.29,6.27,6.27,0,0,0-1.62,0l-45.75,5.8h-.17c-8.46,1.36-18.16,5.62-29.57,13.07a162.15,162.15,0,0,0-16.52,12.4c-6.31-3.87-13.09-4.76-21.4-4.76a42.48,42.48,0,0,0-28.23,10.42h0a2.11,2.11,0,0,0-.23.19,1.56,1.56,0,0,1-.13.13l-.13.12L65,479.05l-.43.48c-.06.08-.11.16-.17.23l-.21.29c-.07.1-.11.18-.17.28a2.4,2.4,0,0,0-.16.27l-.14.29c-.05.09-.09.19-.13.28a1.66,1.66,0,0,0-.1.29c0,.09-.08.21-.12.32s0,.18-.07.28-.06.22-.08.34,0,.21-.05.32,0,.2,0,.31,0,.36,0,.55v.18a5.15,5.15,0,0,0,0,.55,1.57,1.57,0,0,0,0,.3c0,.1,0,.22.05.33a3.18,3.18,0,0,0,.08.33,2.46,2.46,0,0,0,.07.29c0,.1.08.21.11.31l.11.3c.05.09.08.18.13.27l.14.3L64,487c0,.08.11.2.17.29l.21.28c.07.09.11.16.17.23s.28.33.43.48.31.29.48.43l.23.18.28.2.29.17.26.16.3.14.28.13.29.11.31.11L68,490l.33.08.33.05.3.05.55,0h41.81c-3.8,9.15-6.61,17.48-6.81,18.07a.11.11,0,0,1,0,.07,5.67,5.67,0,0,0-.21.81.32.32,0,0,1,0,.14,5.26,5.26,0,0,0-.07.67v.25a6.54,6.54,0,0,0,0,.77l0,.14q0,.33.12.66a.87.87,0,0,0,.05.22,6.28,6.28,0,0,0,.22.7l0,.05a6.47,6.47,0,0,0,.36.75l.09.13a6.49,6.49,0,0,0,.36.55l.13.18c.15.19.32.38.49.56l0,0h0L141.19,550c.17.17.36.32.53.47a6.48,6.48,0,0,0,7.16,2.1c4.36-1.45,10.94-4.11,17.57-7.13v41.73a3.08,3.08,0,0,0,0,.53,1.54,1.54,0,0,0,.05.31c0,.1,0,.21.05.32s0,.22.08.34,0,.18.07.28.07.21.11.31.07.2.11.29.09.19.13.29.09.2.14.29.11.18.16.27l.17.28a1.86,1.86,0,0,0,.21.28,2,2,0,0,0,.17.23c.14.17.28.33.43.48s.31.29.48.43l.23.18A2,2,0,0,1,169.32,592.49ZM148.46,538.9l-30.27-30.27c1.45-4.09,3.3-8.92,5.26-13.63l38.3,38.3C157,535.46,152.28,537.44,148.46,538.9Zm9.12-90.48a150.07,150.07,0,0,1,18.91-14.67c8.34-5.44,15.35-8.87,21.34-10.41l35,35c-1.5,6.46-4.65,13.12-10.16,21.58A151.5,151.5,0,0,1,208,498.82l0,0q-2.69,3-5.58,5.86A154.87,154.87,0,0,1,177.61,525c-1.06.7-2.27,1.42-3.58,2.18l-44.72-44.72c.73-1.35,1.45-2.58,2.13-3.63A155.38,155.38,0,0,1,151.7,454c1.94-1.92,3.89-3.78,5.87-5.58ZM238.17,418l-3.08,24.21L214,421ZM85.31,477.16l26.43-26.43a29.45,29.45,0,0,1,19.67-7.22c4.9,0,8.35.34,11.12,1.23l-.05.06a168.16,168.16,0,0,0-22,26.87c-1.05,1.62-2.12,3.48-3.18,5.49Zm99.43,58.73a168.6,168.6,0,0,0,26.87-22l.09-.1c1,2.93,1.42,6.48,1.42,11.39a29.45,29.45,0,0,1-7.21,19.67l-26.44,26.44V539C181.4,537.94,183.21,536.91,184.74,535.89Zm-14.36-49.51a20.08,20.08,0,1,0,0-28.4h0A20.1,20.1,0,0,0,170.38,486.38Zm19.17-19.18a7,7,0,1,1-10,0A7,7,0,0,1,189.55,467.2ZM289,594.54a20.32,20.32,0,0,1-9.46-2.21,7.25,7.25,0,0,1-4.28-6.87V414.15a7.42,7.42,0,0,1,3.89-6.74,15.82,15.82,0,0,1,8.3-2.33h91a7.08,7.08,0,0,1,6.74,3.88,17.43,17.43,0,0,1-.13,16.72,7.18,7.18,0,0,1-6.61,3.76H302.77v59.35h40.17a7.38,7.38,0,0,1,6.61,3.37,14.06,14.06,0,0,1,.13,14.9c-1.39,2.34-3.63,3.5-6.74,3.5H302.77v74.9a7.25,7.25,0,0,1-4.28,6.87A20.32,20.32,0,0,1,289,594.54Zm175.21,1.55a76.46,76.46,0,0,1-30.07-5.7A45,45,0,0,1,412.92,572q-7.79-12.71-7.78-33.7V413.89a7,7,0,0,1,4.15-6.74,21.19,21.19,0,0,1,9.59-2.07,21.69,21.69,0,0,1,9.33,2.07,7,7,0,0,1,4.41,6.74v124.4q0,17.12,8.29,25.27t23.33,8.17q14.77,0,23.32-8.17t8.56-25.27V413.89a7,7,0,0,1,4.14-6.74,21.19,21.19,0,0,1,9.59-2.07,21.69,21.69,0,0,1,9.33,2.07,7,7,0,0,1,4.41,6.74v124.4q0,21-7.91,33.7a45.67,45.67,0,0,1-21.38,18.4A76.48,76.48,0,0,1,464.24,596.09Zm141-1.55a19.37,19.37,0,0,1-9.46-2.34c-2.85-1.55-4.28-3.79-4.28-6.74V430.22H551.32a7.21,7.21,0,0,1-6.48-3.89,16.75,16.75,0,0,1-2.34-8.81,17.83,17.83,0,0,1,2.08-8.56,7.07,7.07,0,0,1,6.74-3.88H658.88q4.92,0,7,3.88a17.3,17.3,0,0,1,2.08,8.3,18.16,18.16,0,0,1-2.2,9.07,7.37,7.37,0,0,1-6.87,3.89H619V585.46a7.31,7.31,0,0,1-4.27,6.74A19.39,19.39,0,0,1,605.23,594.54Zm94.86,0a15.83,15.83,0,0,1-8.3-2.34,7.41,7.41,0,0,1-3.89-6.74V414.15a7.42,7.42,0,0,1,3.89-6.74,15.82,15.82,0,0,1,8.3-2.33h92.26c3.28,0,5.62,1.29,7,3.88a16.92,16.92,0,0,1,2.07,8,16.06,16.06,0,0,1-2.33,8.68,7.46,7.46,0,0,1-6.74,3.76h-77v59.35h39.91a7.71,7.71,0,0,1,6.74,3.37,13.38,13.38,0,0,1,2.33,7.78,13.81,13.81,0,0,1-2.07,7.12c-1.39,2.34-3.72,3.5-7,3.5H715.38v59.61h77a7.53,7.53,0,0,1,6.74,3.63,15.92,15.92,0,0,1,2.33,8.81,16.89,16.89,0,0,1-2.07,8c-1.38,2.59-3.72,3.89-7,3.89Zm127.77.77a19.45,19.45,0,0,1-7.78-1.81,20.47,20.47,0,0,1-7-4.93,9.78,9.78,0,0,1-2.85-6.73,10.24,10.24,0,0,1,1.82-5.45l44.58-76.71-43.29-76.2a13.77,13.77,0,0,1-2.07-6.74,9.36,9.36,0,0,1,2.59-6.48,17.16,17.16,0,0,1,6.61-4.41,21.93,21.93,0,0,1,7.91-1.55,9.17,9.17,0,0,1,6.35,2.2,16.78,16.78,0,0,1,4,5.57l36,66.35,36-66.35a19,19,0,0,1,4.4-5.57,8.94,8.94,0,0,1,6-2.2,22,22,0,0,1,7.91,1.55,18.46,18.46,0,0,1,6.74,4.41,9.15,9.15,0,0,1,2.72,6.48,13.69,13.69,0,0,1-2.08,6.74l-43.54,76.2,44.84,76.71a11.41,11.41,0,0,1,1.56,5.45,9.79,9.79,0,0,1-2.86,6.73,20.8,20.8,0,0,1-6.86,4.93,19.13,19.13,0,0,1-7.91,1.81,7.86,7.86,0,0,1-5.18-1.94,15.07,15.07,0,0,1-3.63-4.28l-38.1-68.94-38.1,68.94a16.31,16.31,0,0,1-3.5,4.28A7.73,7.73,0,0,1,827.86,595.31Z" transform="translate(-60.69 -403.91)"/></svg>